<svg width="341" height="277" viewBox="0 0 341 277" fill="none" xmlns="http://www.w3.org/2000/svg">
<rect x="4" y="20" width="14" height="223" rx="7" fill="#6379F4"/>
<rect x="56" y="146" width="14" height="97" rx="7" fill="#6379F4"/>
<rect x="110" y="94" width="14" height="149" rx="7" fill="#9DA6B5"/>
<rect x="164" y="60" width="14" height="183" rx="7" fill="#9DA6B5"/>
<rect x="218" y="105" width="14" height="138" rx="7" fill="#9DA6B5"/>
<rect x="272" y="46" width="14" height="197" rx="7" fill="#6379F4"/>
<rect x="326" y="88" width="14" height="155" rx="7" fill="#9DA6B5"/>
<path d="M4.354 272.112C2.814 272.112 1.582 271.697 0.658 270.866L1.106 269.984C1.59133 270.395 2.086 270.689 2.59 270.866C3.10333 271.043 3.696 271.132 4.368 271.132C5.16133 271.132 5.77267 270.978 6.202 270.67C6.63133 270.362 6.846 269.928 6.846 269.368C6.846 269.041 6.74333 268.775 6.538 268.57C6.33267 268.365 6.062 268.201 5.726 268.08C5.39 267.959 4.93733 267.833 4.368 267.702C3.60267 267.525 2.97267 267.338 2.478 267.142C1.99267 266.946 1.596 266.666 1.288 266.302C0.989333 265.938 0.84 265.462 0.84 264.874C0.84 264.314 0.984667 263.819 1.274 263.39C1.57267 262.951 1.99267 262.615 2.534 262.382C3.08467 262.139 3.71933 262.018 4.438 262.018C5.11933 262.018 5.754 262.125 6.342 262.34C6.93933 262.555 7.44333 262.863 7.854 263.264L7.42 264.146C6.95333 263.745 6.47733 263.455 5.992 263.278C5.516 263.091 4.998 262.998 4.438 262.998C3.67267 262.998 3.07067 263.161 2.632 263.488C2.20267 263.805 1.988 264.253 1.988 264.832C1.988 265.327 2.17933 265.7 2.562 265.952C2.94467 266.204 3.52333 266.419 4.298 266.596C5.14733 266.801 5.81467 266.993 6.3 267.17C6.78533 267.338 7.18667 267.595 7.504 267.94C7.83067 268.285 7.994 268.747 7.994 269.326C7.994 269.886 7.84467 270.376 7.546 270.796C7.25667 271.216 6.83667 271.543 6.286 271.776C5.73533 272 5.09133 272.112 4.354 272.112ZM12.4626 265.014C13.3306 265.014 13.9746 265.238 14.3946 265.686C14.824 266.125 15.0386 266.797 15.0386 267.702V272H13.9326V270.838C13.7553 271.239 13.4846 271.552 13.1206 271.776C12.7566 271.991 12.3366 272.098 11.8606 272.098C11.422 272.098 11.016 272.009 10.6426 271.832C10.2786 271.655 9.98929 271.407 9.77463 271.09C9.55996 270.773 9.45263 270.423 9.45263 270.04C9.45263 269.527 9.58329 269.13 9.84463 268.85C10.106 268.561 10.5353 268.355 11.1326 268.234C11.73 268.103 12.5606 268.038 13.6246 268.038H13.9326V267.576C13.9326 267.007 13.816 266.596 13.5826 266.344C13.3493 266.083 12.9713 265.952 12.4486 265.952C11.6646 265.952 10.8853 266.195 10.1106 266.68L9.73263 265.854C10.0873 265.602 10.512 265.401 11.0066 265.252C11.5106 265.093 11.996 265.014 12.4626 265.014ZM12.0146 271.202C12.5746 271.202 13.032 271.015 13.3866 270.642C13.7506 270.259 13.9326 269.769 13.9326 269.172V268.766H13.6806C12.8593 268.766 12.234 268.803 11.8046 268.878C11.3753 268.943 11.0673 269.06 10.8806 269.228C10.7033 269.387 10.6146 269.625 10.6146 269.942C10.6146 270.306 10.7453 270.609 11.0066 270.852C11.2773 271.085 11.6133 271.202 12.0146 271.202ZM20.1105 271.188C20.3158 271.188 20.5211 271.174 20.7265 271.146L20.6705 272.042C20.4558 272.079 20.2225 272.098 19.9705 272.098C19.1491 272.098 18.5285 271.883 18.1085 271.454C17.6978 271.025 17.4925 270.427 17.4925 269.662V266.078H16.1625V265.182H17.4925V263.11H18.6265V265.182H20.5585V266.078H18.6265V269.578C18.6265 270.651 19.1211 271.188 20.1105 271.188Z" fill="#8F8F8F"/>
<path d="M54.354 272.112C52.814 272.112 51.582 271.697 50.658 270.866L51.106 269.984C51.5913 270.395 52.086 270.689 52.59 270.866C53.1033 271.043 53.696 271.132 54.368 271.132C55.1613 271.132 55.7727 270.978 56.202 270.67C56.6313 270.362 56.846 269.928 56.846 269.368C56.846 269.041 56.7433 268.775 56.538 268.57C56.3327 268.365 56.062 268.201 55.726 268.08C55.39 267.959 54.9373 267.833 54.368 267.702C53.6027 267.525 52.9727 267.338 52.478 267.142C51.9927 266.946 51.596 266.666 51.288 266.302C50.9893 265.938 50.84 265.462 50.84 264.874C50.84 264.314 50.9847 263.819 51.274 263.39C51.5727 262.951 51.9927 262.615 52.534 262.382C53.0847 262.139 53.7193 262.018 54.438 262.018C55.1193 262.018 55.754 262.125 56.342 262.34C56.9393 262.555 57.4433 262.863 57.854 263.264L57.42 264.146C56.9533 263.745 56.4773 263.455 55.992 263.278C55.516 263.091 54.998 262.998 54.438 262.998C53.6727 262.998 53.0707 263.161 52.632 263.488C52.2027 263.805 51.988 264.253 51.988 264.832C51.988 265.327 52.1793 265.7 52.562 265.952C52.9447 266.204 53.5233 266.419 54.298 266.596C55.1473 266.801 55.8147 266.993 56.3 267.17C56.7853 267.338 57.1867 267.595 57.504 267.94C57.8307 268.285 57.994 268.747 57.994 269.326C57.994 269.886 57.8447 270.376 57.546 270.796C57.2567 271.216 56.8367 271.543 56.286 271.776C55.7353 272 55.0913 272.112 54.354 272.112ZM65.4306 265.182V272H64.3246V270.838C64.11 271.249 63.8066 271.561 63.4146 271.776C63.032 271.991 62.598 272.098 62.1126 272.098C61.3006 272.098 60.6893 271.874 60.2786 271.426C59.868 270.969 59.6626 270.297 59.6626 269.41V265.182H60.7966V269.382C60.7966 269.989 60.918 270.437 61.1606 270.726C61.4033 271.006 61.786 271.146 62.3086 271.146C62.906 271.146 63.3866 270.955 63.7506 270.572C64.1146 270.18 64.2966 269.667 64.2966 269.032V265.182H65.4306ZM70.9683 265.014C72.6016 265.014 73.4183 265.915 73.4183 267.716V272H72.2843V267.786C72.2843 267.151 72.1583 266.689 71.9063 266.4C71.6636 266.111 71.2716 265.966 70.7303 265.966C70.1049 265.966 69.6056 266.157 69.2323 266.54C68.8589 266.923 68.6723 267.441 68.6723 268.094V272H67.5383V265.182H68.6583V266.302C68.8823 265.882 69.1949 265.565 69.5963 265.35C69.9976 265.126 70.4549 265.014 70.9683 265.014Z" fill="#8F8F8F"/>
<path d="M112.604 262.13H113.542V272H112.492L112.506 264.356L109.3 270.432H108.488L105.268 264.412L105.282 272H104.218V262.13H105.17L108.908 269.284L112.604 262.13ZM118.649 272.098C118.005 272.098 117.436 271.953 116.941 271.664C116.456 271.375 116.078 270.964 115.807 270.432C115.546 269.891 115.415 269.265 115.415 268.556C115.415 267.847 115.546 267.226 115.807 266.694C116.078 266.153 116.456 265.737 116.941 265.448C117.436 265.159 118.005 265.014 118.649 265.014C119.293 265.014 119.863 265.159 120.357 265.448C120.852 265.737 121.23 266.153 121.491 266.694C121.762 267.226 121.897 267.847 121.897 268.556C121.897 269.265 121.762 269.891 121.491 270.432C121.23 270.964 120.852 271.375 120.357 271.664C119.863 271.953 119.293 272.098 118.649 272.098ZM118.649 271.16C119.321 271.16 119.835 270.941 120.189 270.502C120.553 270.054 120.735 269.405 120.735 268.556C120.735 267.725 120.553 267.086 120.189 266.638C119.825 266.181 119.312 265.952 118.649 265.952C117.987 265.952 117.473 266.181 117.109 266.638C116.745 267.086 116.563 267.725 116.563 268.556C116.563 269.396 116.741 270.04 117.095 270.488C117.459 270.936 117.977 271.16 118.649 271.16ZM127.017 265.014C128.65 265.014 129.467 265.915 129.467 267.716V272H128.333V267.786C128.333 267.151 128.207 266.689 127.955 266.4C127.712 266.111 127.32 265.966 126.779 265.966C126.154 265.966 125.654 266.157 125.281 266.54C124.908 266.923 124.721 267.441 124.721 268.094V272H123.587V265.182H124.707V266.302C124.931 265.882 125.244 265.565 125.645 265.35C126.046 265.126 126.504 265.014 127.017 265.014Z" fill="#8F8F8F"/>
<path d="M162.598 272V263.11H159.168V262.13H167.204V263.11H163.76V272H162.598ZM173.132 265.182V272H172.026V270.838C171.811 271.249 171.508 271.561 171.116 271.776C170.733 271.991 170.299 272.098 169.814 272.098C169.002 272.098 168.39 271.874 167.98 271.426C167.569 270.969 167.364 270.297 167.364 269.41V265.182H168.498V269.382C168.498 269.989 168.619 270.437 168.862 270.726C169.104 271.006 169.487 271.146 170.01 271.146C170.607 271.146 171.088 270.955 171.452 270.572C171.816 270.18 171.998 269.667 171.998 269.032V265.182H173.132ZM180.951 268.766H175.967C176.005 269.559 176.219 270.161 176.611 270.572C177.003 270.973 177.559 271.174 178.277 271.174C179.071 271.174 179.799 270.903 180.461 270.362L180.839 271.188C180.541 271.468 180.158 271.692 179.691 271.86C179.225 272.019 178.749 272.098 178.263 272.098C177.199 272.098 176.359 271.785 175.743 271.16C175.137 270.535 174.833 269.671 174.833 268.57C174.833 267.87 174.969 267.254 175.239 266.722C175.51 266.181 175.888 265.761 176.373 265.462C176.868 265.163 177.428 265.014 178.053 265.014C178.959 265.014 179.668 265.313 180.181 265.91C180.695 266.498 180.951 267.31 180.951 268.346V268.766ZM178.067 265.896C177.47 265.896 176.989 266.083 176.625 266.456C176.271 266.829 176.061 267.357 175.995 268.038H179.957C179.939 267.347 179.766 266.82 179.439 266.456C179.113 266.083 178.655 265.896 178.067 265.896Z" fill="#8F8F8F"/>
<path d="M222.818 262.13H223.938L220.494 272H219.514L216.7 263.922L213.886 272H212.92L209.462 262.13H210.624L213.424 270.376L216.294 262.13L217.162 262.144L219.99 270.39L222.818 262.13ZM230.391 268.766H225.407C225.444 269.559 225.659 270.161 226.051 270.572C226.443 270.973 226.998 271.174 227.717 271.174C228.51 271.174 229.238 270.903 229.901 270.362L230.279 271.188C229.98 271.468 229.598 271.692 229.131 271.86C228.664 272.019 228.188 272.098 227.703 272.098C226.639 272.098 225.799 271.785 225.183 271.16C224.576 270.535 224.273 269.671 224.273 268.57C224.273 267.87 224.408 267.254 224.679 266.722C224.95 266.181 225.328 265.761 225.813 265.462C226.308 265.163 226.868 265.014 227.493 265.014C228.398 265.014 229.108 265.313 229.621 265.91C230.134 266.498 230.391 267.31 230.391 268.346V268.766ZM227.507 265.896C226.91 265.896 226.429 266.083 226.065 266.456C225.71 266.829 225.5 267.357 225.435 268.038H229.397C229.378 267.347 229.206 266.82 228.879 266.456C228.552 266.083 228.095 265.896 227.507 265.896ZM238.11 262.13V272H236.976V270.754C236.77 271.183 236.467 271.515 236.066 271.748C235.674 271.981 235.212 272.098 234.68 272.098C234.082 272.098 233.555 271.949 233.098 271.65C232.64 271.351 232.286 270.936 232.034 270.404C231.782 269.863 231.656 269.237 231.656 268.528C231.656 267.828 231.782 267.212 232.034 266.68C232.286 266.148 232.64 265.737 233.098 265.448C233.555 265.159 234.082 265.014 234.68 265.014C235.212 265.014 235.674 265.131 236.066 265.364C236.467 265.597 236.77 265.929 236.976 266.358V262.13H238.11ZM234.904 271.16C235.566 271.16 236.075 270.936 236.43 270.488C236.794 270.031 236.976 269.387 236.976 268.556C236.976 267.725 236.794 267.086 236.43 266.638C236.075 266.19 235.566 265.966 234.904 265.966C234.241 265.966 233.723 266.19 233.35 266.638C232.986 267.086 232.804 267.716 232.804 268.528C232.804 269.359 232.986 270.007 233.35 270.474C233.723 270.931 234.241 271.16 234.904 271.16Z" fill="#8F8F8F"/>
<path d="M269.598 272V263.11H266.168V262.13H274.204V263.11H270.76V272H269.598ZM278.847 265.014C280.481 265.014 281.297 265.915 281.297 267.716V272H280.163V267.786C280.163 267.151 280.037 266.689 279.785 266.4C279.543 266.111 279.151 265.966 278.609 265.966C277.984 265.966 277.485 266.157 277.111 266.54C276.738 266.923 276.551 267.441 276.551 268.094V272H275.417V262.13H276.551V266.274C276.775 265.863 277.083 265.551 277.475 265.336C277.877 265.121 278.334 265.014 278.847 265.014ZM289.114 265.182V272H288.008V270.838C287.794 271.249 287.49 271.561 287.098 271.776C286.716 271.991 286.282 272.098 285.796 272.098C284.984 272.098 284.373 271.874 283.962 271.426C283.552 270.969 283.346 270.297 283.346 269.41V265.182H284.48V269.382C284.48 269.989 284.602 270.437 284.844 270.726C285.087 271.006 285.47 271.146 285.992 271.146C286.59 271.146 287.07 270.955 287.434 270.572C287.798 270.18 287.98 269.667 287.98 269.032V265.182H289.114Z" fill="#8F8F8F"/>
<path d="M326.218 272V262.13H332.322V263.096H327.352V266.498H332.042V267.464H327.352V272H326.218ZM337.57 265.994L336.828 266.064C336.128 266.129 335.62 266.349 335.302 266.722C334.994 267.095 334.84 267.557 334.84 268.108V272H333.706V265.182H334.812V266.372C335.195 265.579 335.946 265.135 337.066 265.042L337.472 265.014L337.57 265.994ZM338.642 272V265.182H339.776V272H338.642ZM338.53 262.228H339.902V263.502H338.53V262.228Z" fill="#8F8F8F"/>
<g filter="url(#filter0_d_38_175)">
<circle cx="171" cy="72" r="12" fill="white"/>
</g>
<g filter="url(#filter1_d_38_175)">
<circle cx="171" cy="72" r="7" fill="#6379F4"/>
</g>
<g filter="url(#filter2_d_38_175)">
<rect x="124" y="16" width="94" height="29" rx="6" fill="white"/>
</g>
<path d="M142.634 30.38V31.612H139.834V34.412H138.602V31.612H135.802V30.38H138.602V27.58H139.834V30.38H142.634ZM152.75 35H150.79L149.096 31.85C148.937 31.5513 148.741 31.3413 148.508 31.22C148.275 31.0987 147.981 31.038 147.626 31.038H146.254V35H144.476V25.13H148.844C149.964 25.13 150.813 25.382 151.392 25.886C151.98 26.3807 152.274 27.0993 152.274 28.042C152.274 28.798 152.059 29.4233 151.63 29.918C151.21 30.4033 150.613 30.7207 149.838 30.87C150.361 31.01 150.781 31.3787 151.098 31.976L152.75 35ZM148.592 29.652C149.273 29.652 149.773 29.526 150.09 29.274C150.407 29.0127 150.566 28.616 150.566 28.084C150.566 27.5427 150.407 27.1507 150.09 26.908C149.773 26.656 149.273 26.53 148.592 26.53H146.24V29.652H148.592ZM157.99 27.986C158.578 27.986 159.101 28.1353 159.558 28.434C160.025 28.7327 160.384 29.1573 160.636 29.708C160.898 30.2493 161.028 30.8747 161.028 31.584C161.028 32.2933 160.898 32.914 160.636 33.446C160.384 33.978 160.03 34.3887 159.572 34.678C159.115 34.9673 158.588 35.112 157.99 35.112C157.505 35.112 157.071 35.0093 156.688 34.804C156.306 34.5987 156.012 34.314 155.806 33.95V37.52H154.056V28.154H155.778V29.19C155.984 28.8073 156.278 28.5133 156.66 28.308C157.052 28.0933 157.496 27.986 157.99 27.986ZM157.528 33.754C158.079 33.754 158.508 33.5673 158.816 33.194C159.124 32.8113 159.278 32.2747 159.278 31.584C159.278 30.8747 159.124 30.324 158.816 29.932C158.508 29.54 158.079 29.344 157.528 29.344C156.968 29.344 156.534 29.5353 156.226 29.918C155.928 30.3007 155.778 30.8467 155.778 31.556C155.778 32.256 155.928 32.7973 156.226 33.18C156.534 33.5627 156.968 33.754 157.528 33.754ZM166.371 28.672C166.949 28.672 167.467 28.8073 167.925 29.078C168.382 29.3393 168.737 29.7127 168.989 30.198C169.25 30.674 169.381 31.22 169.381 31.836C169.381 32.4707 169.241 33.04 168.961 33.544C168.681 34.0387 168.289 34.426 167.785 34.706C167.281 34.986 166.711 35.126 166.077 35.126C164.826 35.126 163.86 34.706 163.179 33.866C162.507 33.0167 162.171 31.808 162.171 30.24C162.171 29.1573 162.329 28.224 162.647 27.44C162.973 26.6467 163.44 26.0447 164.047 25.634C164.653 25.214 165.372 25.004 166.203 25.004C166.791 25.004 167.365 25.1067 167.925 25.312C168.485 25.508 168.97 25.788 169.381 26.152L168.779 27.468C167.911 26.7867 167.075 26.446 166.273 26.446C165.554 26.446 164.994 26.754 164.593 27.37C164.191 27.9767 163.981 28.8587 163.963 30.016C164.177 29.596 164.499 29.2693 164.929 29.036C165.358 28.7933 165.839 28.672 166.371 28.672ZM165.993 33.698C166.506 33.698 166.912 33.5347 167.211 33.208C167.519 32.8813 167.673 32.4427 167.673 31.892C167.673 31.3507 167.519 30.9167 167.211 30.59C166.903 30.2633 166.492 30.1 165.979 30.1C165.465 30.1 165.045 30.268 164.719 30.604C164.401 30.9307 164.243 31.36 164.243 31.892C164.243 32.4333 164.401 32.872 164.719 33.208C165.045 33.5347 165.47 33.698 165.993 33.698ZM174.681 28.686C175.297 28.686 175.839 28.8213 176.305 29.092C176.781 29.3533 177.145 29.722 177.397 30.198C177.659 30.674 177.789 31.22 177.789 31.836C177.789 32.4893 177.64 33.0633 177.341 33.558C177.043 34.0527 176.618 34.4353 176.067 34.706C175.526 34.9767 174.887 35.112 174.149 35.112C173.533 35.112 172.922 35.0093 172.315 34.804C171.718 34.5893 171.223 34.3093 170.831 33.964L171.433 32.648C172.329 33.3293 173.244 33.67 174.177 33.67C174.793 33.67 175.265 33.516 175.591 33.208C175.918 32.9 176.081 32.4613 176.081 31.892C176.081 31.3413 175.913 30.9073 175.577 30.59C175.251 30.2633 174.803 30.1 174.233 30.1C173.851 30.1 173.487 30.1747 173.141 30.324C172.805 30.464 172.502 30.6693 172.231 30.94H171.153V25.13H177.341V26.53H172.917V29.19C173.393 28.854 173.981 28.686 174.681 28.686ZM179.1 33.068H181.06V35H179.1V33.068ZM186.016 35.126C184.85 35.126 183.958 34.6967 183.342 33.838C182.726 32.97 182.418 31.71 182.418 30.058C182.418 28.4247 182.726 27.1787 183.342 26.32C183.958 25.4613 184.85 25.032 186.016 25.032C187.183 25.032 188.074 25.4613 188.69 26.32C189.306 27.1787 189.614 28.4247 189.614 30.058C189.614 31.7007 189.306 32.956 188.69 33.824C188.074 34.692 187.183 35.126 186.016 35.126ZM186.016 33.712C186.651 33.712 187.113 33.4227 187.402 32.844C187.692 32.256 187.836 31.3273 187.836 30.058C187.836 28.798 187.692 27.8833 187.402 27.314C187.113 26.7353 186.651 26.446 186.016 26.446C185.382 26.446 184.92 26.7353 184.63 27.314C184.341 27.8833 184.196 28.798 184.196 30.058C184.196 31.3273 184.341 32.256 184.63 32.844C184.92 33.4227 185.382 33.712 186.016 33.712ZM194.411 35.126C193.244 35.126 192.353 34.6967 191.737 33.838C191.121 32.97 190.813 31.71 190.813 30.058C190.813 28.4247 191.121 27.1787 191.737 26.32C192.353 25.4613 193.244 25.032 194.411 25.032C195.578 25.032 196.469 25.4613 197.085 26.32C197.701 27.1787 198.009 28.4247 198.009 30.058C198.009 31.7007 197.701 32.956 197.085 33.824C196.469 34.692 195.578 35.126 194.411 35.126ZM194.411 33.712C195.046 33.712 195.508 33.4227 195.797 32.844C196.086 32.256 196.231 31.3273 196.231 30.058C196.231 28.798 196.086 27.8833 195.797 27.314C195.508 26.7353 195.046 26.446 194.411 26.446C193.776 26.446 193.314 26.7353 193.025 27.314C192.736 27.8833 192.591 28.798 192.591 30.058C192.591 31.3273 192.736 32.256 193.025 32.844C193.314 33.4227 193.776 33.712 194.411 33.712ZM202.805 35.126C201.639 35.126 200.747 34.6967 200.131 33.838C199.515 32.97 199.207 31.71 199.207 30.058C199.207 28.4247 199.515 27.1787 200.131 26.32C200.747 25.4613 201.639 25.032 202.805 25.032C203.972 25.032 204.863 25.4613 205.479 26.32C206.095 27.1787 206.403 28.4247 206.403 30.058C206.403 31.7007 206.095 32.956 205.479 33.824C204.863 34.692 203.972 35.126 202.805 35.126ZM202.805 33.712C203.44 33.712 203.902 33.4227 204.191 32.844C204.481 32.256 204.625 31.3273 204.625 30.058C204.625 28.798 204.481 27.8833 204.191 27.314C203.902 26.7353 203.44 26.446 202.805 26.446C202.171 26.446 201.709 26.7353 201.419 27.314C201.13 27.8833 200.985 28.798 200.985 30.058C200.985 31.3273 201.13 32.256 201.419 32.844C201.709 33.4227 202.171 33.712 202.805 33.712Z" fill="#1EC15F"/>
<defs>
<filter id="filter0_d_38_175" x="139" y="44" width="64" height="64" filterUnits="userSpaceOnUse" color-interpolation-filters="sRGB">
<feFlood flood-opacity="0" result="BackgroundImageFix"/>
<feColorMatrix in="SourceAlpha" type="matrix" values="0 0 0 0 0 0 0 0 0 0 0 0 0 0 0 0 0 0 127 0" result="hardAlpha"/>
<feOffset dy="4"/>
<feGaussianBlur stdDeviation="10"/>
<feColorMatrix type="matrix" values="0 0 0 0 0.733333 0 0 0 0 0.733333 0 0 0 0 0.733333 0 0 0 0.25 0"/>
<feBlend mode="normal" in2="BackgroundImageFix" result="effect1_dropShadow_38_175"/>
<feBlend mode="normal" in="SourceGraphic" in2="effect1_dropShadow_38_175" result="shape"/>
</filter>
<filter id="filter1_d_38_175" x="154" y="59" width="34" height="34" filterUnits="userSpaceOnUse" color-interpolation-filters="sRGB">
<feFlood flood-opacity="0" result="BackgroundImageFix"/>
<feColorMatrix in="SourceAlpha" type="matrix" values="0 0 0 0 0 0 0 0 0 0 0 0 0 0 0 0 0 0 127 0" result="hardAlpha"/>
<feOffset dy="4"/>
<feGaussianBlur stdDeviation="5"/>
<feColorMatrix type="matrix" values="0 0 0 0 0.733333 0 0 0 0 0.733333 0 0 0 0 0.733333 0 0 0 0.25 0"/>
<feBlend mode="normal" in2="BackgroundImageFix" result="effect1_dropShadow_38_175"/>
<feBlend mode="normal" in="SourceGraphic" in2="effect1_dropShadow_38_175" result="shape"/>
</filter>
<filter id="filter2_d_38_175" x="104" y="0" width="134" height="69" filterUnits="userSpaceOnUse" color-interpolation-filters="sRGB">
<feFlood flood-opacity="0" result="BackgroundImageFix"/>
<feColorMatrix in="SourceAlpha" type="matrix" values="0 0 0 0 0 0 0 0 0 0 0 0 0 0 0 0 0 0 127 0" result="hardAlpha"/>
<feOffset dy="4"/>
<feGaussianBlur stdDeviation="10"/>
<feColorMatrix type="matrix" values="0 0 0 0 0.733333 0 0 0 0 0.733333 0 0 0 0 0.733333 0 0 0 0.25 0"/>
<feBlend mode="normal" in2="BackgroundImageFix" result="effect1_dropShadow_38_175"/>
<feBlend mode="normal" in="SourceGraphic" in2="effect1_dropShadow_38_175" result="shape"/>
</filter>
</defs>
</svg>
