<svg width="560" height="270" viewBox="0 0 560 270" fill="none" xmlns="http://www.w3.org/2000/svg">
<path d="M90.0482 48.5283C90.0482 50.1859 88.6697 51.5422 86.985 51.5422C85.3002 51.5422 83.9218 50.1859 83.9218 48.5283C83.9218 46.8706 85.2236 45.5143 86.985 45.5143C88.7463 45.552 90.0482 46.9083 90.0482 48.5283ZM77.489 54.5561C77.489 54.8198 77.489 55.3096 77.489 55.3096C77.489 55.3096 76.034 53.4636 72.9325 53.4636C67.8399 53.4636 63.8195 57.3063 63.8195 62.5807C63.8195 67.855 67.7633 71.6978 72.9325 71.6978C76.0723 71.6978 77.489 69.8141 77.489 69.8141V70.6052C77.489 70.982 77.757 71.2457 78.14 71.2457H81.9307V53.9156C81.9307 53.9156 78.4463 53.9156 78.14 53.9156C77.757 53.9156 77.489 54.2547 77.489 54.5561ZM77.489 65.6699C76.7998 66.6871 75.3831 67.5536 73.6983 67.5536C70.7117 67.5536 68.4143 65.7076 68.4143 62.5807C68.4143 59.4537 70.7117 57.6077 73.6983 57.6077C75.3448 57.6077 76.8381 58.5119 77.489 59.4914V65.6699ZM84.7641 53.9156H89.2824V71.2457H84.7641V53.9156ZM151.963 53.4636C148.862 53.4636 147.407 55.3096 147.407 55.3096V45.5897H142.889V71.2834C142.889 71.2834 146.373 71.2834 146.679 71.2834C147.062 71.2834 147.33 70.9443 147.33 70.6429V69.8518C147.33 69.8518 148.785 71.7355 151.887 71.7355C156.979 71.7355 161 67.855 161 62.6183C161.038 57.344 157.018 53.4636 151.963 53.4636ZM151.236 67.516C149.513 67.516 148.134 66.6495 147.445 65.6323V59.4537C148.134 58.5496 149.666 57.57 151.236 57.57C154.222 57.57 156.52 59.4161 156.52 62.543C156.52 65.6699 154.222 67.516 151.236 67.516ZM140.591 60.9607V71.2834H136.073V61.4881C136.073 58.6249 135.154 57.457 132.588 57.457C131.21 57.457 129.832 58.1351 128.951 59.1523V71.2457H124.433V53.9156H127.994C128.377 53.9156 128.645 54.2547 128.645 54.5561V55.3096C129.946 53.9533 131.708 53.4636 133.431 53.4636C135.384 53.4636 137.03 54.0287 138.37 55.1212C139.978 56.4021 140.591 58.0598 140.591 60.9607ZM113.52 53.4636C110.419 53.4636 108.963 55.3096 108.963 55.3096V45.5897H104.445V71.2834C104.445 71.2834 107.93 71.2834 108.236 71.2834C108.619 71.2834 108.887 70.9443 108.887 70.6429V69.8518C108.887 69.8518 110.342 71.7355 113.443 71.7355C118.536 71.7355 122.556 67.855 122.556 62.6183C122.633 57.344 118.651 53.4636 113.52 53.4636ZM112.792 67.516C111.069 67.516 109.691 66.6495 109.002 65.6323V59.4537C109.691 58.5496 111.223 57.57 112.792 57.57C115.779 57.57 118.077 59.4161 118.077 62.543C118.077 65.6699 115.779 67.516 112.792 67.516ZM100.578 53.4636C101.956 53.4636 102.646 53.6896 102.646 53.6896V57.7961C102.646 57.7961 98.8932 56.5528 96.5575 59.19V71.321H92.0393V53.9156C92.0393 53.9156 95.5237 53.9156 95.83 53.9156C96.2129 53.9156 96.4809 54.2547 96.4809 54.5561V55.3096C97.3616 54.3301 99.1995 53.4636 100.578 53.4636ZM53.864 69.7011C53.6343 69.136 53.4045 68.5332 53.1748 68.0434C52.7919 67.2146 52.409 66.4234 52.1027 65.7076L52.0644 65.6699C48.848 58.7379 45.3636 51.7305 41.6878 44.8362L41.5346 44.5725C41.1517 43.8943 40.7688 43.1409 40.4242 42.3874C39.9647 41.5586 39.5052 40.6921 38.7394 39.8632C37.2461 38.0172 35.1019 37 32.8045 37C30.4688 37 28.3628 38.0172 26.7929 39.7502C26.1037 40.579 25.5676 41.4455 25.1082 42.2744C24.7253 43.0278 24.3424 43.7437 23.9977 44.4595L23.8446 44.7232C20.2453 51.6552 16.7226 58.6626 13.468 65.5569L13.4297 65.6323C13.0851 66.3857 12.7405 67.1392 12.3576 67.9681C12.1278 68.4578 11.8981 69.0229 11.6683 69.6257C11.0557 71.321 10.8642 72.941 11.094 74.5987C11.5918 78.0647 13.9657 80.9656 17.1821 82.2465C18.4074 82.7363 19.671 83 20.9728 83C21.3557 83 21.8152 82.9623 22.1981 82.9246C23.7297 82.7363 25.3379 82.2465 26.8695 81.3423C28.784 80.2875 30.6219 78.7428 32.6896 76.5577C34.7573 78.7805 36.6335 80.2875 38.5097 81.3423C40.0413 82.2088 41.6495 82.7363 43.1811 82.9246C43.564 82.9623 44.0235 83 44.4064 83C45.7082 83 47.0484 82.774 48.1971 82.2465C51.49 80.9656 53.7874 77.9894 54.2852 74.5987C54.6681 73.0164 54.4767 71.3964 53.864 69.7011ZM32.7279 72.0745C30.2007 68.9476 28.5543 65.9713 27.9799 63.4848C27.7502 62.43 27.7119 61.4881 27.8268 60.6593C27.9033 59.9058 28.2097 59.2654 28.5926 58.7379C29.4732 57.4947 30.9665 56.7035 32.7279 56.7035C34.4892 56.7035 36.0208 57.457 36.8632 58.7379C37.2461 59.303 37.5142 59.9435 37.629 60.6593C37.7822 61.4881 37.7056 62.4676 37.4759 63.4848C36.9015 65.9713 35.255 68.9099 32.7279 72.0745ZM51.4135 74.2596C51.0688 76.6708 49.4607 78.7428 47.1633 79.647C46.0528 80.0991 44.8276 80.2498 43.6023 80.0991C42.4153 79.9484 41.2666 79.6093 40.0413 78.8935C38.3565 77.9893 36.6718 76.5577 34.6807 74.4103C37.7822 70.6806 39.6584 67.2523 40.3476 64.2007C40.6922 62.769 40.7305 61.4881 40.5774 60.2826C40.3859 59.1147 39.9647 58.0598 39.3138 57.1556C37.8588 55.0835 35.4082 53.878 32.6896 53.878C29.971 53.878 27.5204 55.1212 26.0654 57.1556C25.4145 58.0598 24.9933 59.1523 24.8018 60.2826C24.6104 61.4881 24.6487 62.8067 25.0316 64.2007C25.7208 67.2523 27.6736 70.7183 30.6985 74.448C28.784 76.5577 27.061 77.9894 25.3379 78.9312C24.1126 79.6093 22.9639 79.9861 21.7769 80.1368C20.5133 80.2875 19.2881 80.0991 18.2159 79.6847C15.9185 78.7805 14.2721 76.6708 13.9657 74.2973C13.8126 73.1294 13.9275 71.9992 14.3869 70.7183C14.5401 70.2662 14.7698 69.8141 14.9996 69.249C15.3442 68.4955 15.6888 67.742 16.0717 66.9509L16.11 66.8755C19.3264 60.0188 22.8108 52.9738 26.41 46.1548L26.5632 45.8911C26.9461 45.2129 27.329 44.4595 27.6736 43.7813C28.0565 43.0278 28.4777 42.3497 28.9755 41.7469C29.971 40.6544 31.2729 40.0516 32.7279 40.0516C34.1829 40.0516 35.4848 40.6544 36.4803 41.7469C36.9781 42.3497 37.3993 43.0278 37.7822 43.7813C38.1651 44.4595 38.548 45.2129 38.8926 45.8911L39.0458 46.1548C42.6067 53.0115 46.0911 60.0565 49.3075 66.9132V66.9509C49.6904 67.7043 49.9967 68.5332 50.3796 69.249C50.6094 69.8141 50.8391 70.2662 50.9923 70.7183C51.4517 71.8862 51.6049 73.0541 51.4135 74.2596Z" fill="#C6C6C6"/>
<path d="M232.825 72.266C226.314 72.266 221.037 66.9865 221.037 60.4743C221.037 53.9617 226.314 48.6872 232.825 48.6872C235.12 48.6872 237.262 49.3417 239.072 50.4762L232.825 60.4743L244.586 53.683C243.308 51.647 241.476 49.8926 239.259 48.5614C236.439 46.873 232.517 45.8281 228.179 45.8281C221.991 45.8281 216.563 48.0767 213.535 51.4439C211.294 53.9331 209.959 57.066 209.959 60.4741C209.959 63.8846 211.294 67.0198 213.535 69.5107C216.57 72.8822 221.918 75.1176 228.004 75.1176C234.088 75.1176 239.435 72.8805 242.472 69.5107C242.638 69.3252 242.799 69.1379 242.951 68.9436L242.493 67.2246C240.359 70.2704 236.824 72.266 232.825 72.266Z" fill="#C6C6C6"/>
<path d="M271.819 74.4085L266.883 55.9932C266.09 53.0173 263.38 50.8301 260.154 50.8301C259.317 50.8301 258.515 50.9796 257.771 51.2502L247.144 55.1146H258.074L259.942 62.09C258.13 60.5307 255.77 59.5819 253.187 59.5819C248.056 59.5819 243.902 63.0201 243.902 67.2612C243.902 71.5027 248.056 74.9459 253.187 74.9459C256.88 74.9459 260.147 73.1377 262.161 70.3596L263.245 74.4085H271.819ZM256.761 71.5482C254.394 71.5482 252.476 69.6314 252.476 67.2612C252.476 64.8945 254.394 62.976 256.761 62.976C259.128 62.976 261.048 64.8945 261.048 67.2612C261.048 69.6314 259.128 71.5482 256.761 71.5482Z" fill="#C6C6C6"/>
<path d="M291.946 50.833C291.299 50.833 290.686 50.9762 290.14 51.2326L283.316 54.4126C282.978 52.3813 281.214 50.833 279.085 50.833C278.441 50.833 277.827 50.9762 277.274 51.2326L268.943 55.1144H274.8V74.4085H283.374V57.2609C283.374 56.0777 284.332 55.1146 285.518 55.1146C286.698 55.1146 287.663 56.0777 287.663 57.2609V74.4085H296.233V55.1144C296.233 52.7482 294.313 50.8332 291.946 50.8332" fill="#C6C6C6"/>
<path d="M345.715 50.833C345.065 50.833 344.449 50.9762 343.894 51.2326L337.078 54.4126C336.742 52.3813 334.977 50.833 332.849 50.833C332.205 50.833 331.59 50.9762 331.035 51.2326L322.708 55.1144H328.563V74.4085H337.136V57.2609C337.136 56.0777 338.095 55.1146 339.282 55.1146C340.465 55.1146 341.423 56.0777 341.423 57.2609V74.4085H350V55.1144C350 52.7482 348.078 50.8332 345.715 50.8332" fill="#C6C6C6"/>
<path d="M324.094 62.9756C324.094 69.6819 318.659 75.1173 311.955 75.1173C305.245 75.1173 299.806 69.6819 299.806 62.9756C299.806 56.271 305.245 50.833 311.955 50.833C318.659 50.833 324.094 56.2711 324.094 62.9756ZM312.457 54.5182C312.075 53.0894 310.607 52.2413 309.178 52.6254C307.752 53.0078 306.899 54.4774 307.283 55.906L311.447 71.4324C311.832 72.8626 313.297 73.7099 314.726 73.3317C316.154 72.9449 317.003 71.4762 316.62 70.0478L312.457 54.5182Z" fill="#C6C6C6"/>
<path d="M471.775 16.291H474.495C487.723 17.0365 497.155 22.0568 504.148 29.0924C511.14 36.1281 516.309 45.4075 517 58.6845V61.3149C516.328 74.8042 511.068 83.7071 504.148 90.9509C496.878 97.8315 487.941 103.045 474.451 103.708H471.775C458.549 102.961 449.115 97.9428 442.123 90.9068C435.13 83.8711 429.961 74.5919 429.271 61.3149V58.6845C429.305 58.6749 429.322 58.6479 429.314 58.5968C429.976 45.3705 435.173 35.9946 442.123 29.0486C449.105 22.0702 458.634 17.0141 471.775 16.291ZM463.178 22.5602C460.572 23.2577 458.234 24.1435 456.116 25.1905C449.667 28.3773 444.35 32.9367 440.631 38.7809C437.002 44.4854 433.86 51.8237 434.315 61.4463C434.602 67.5128 435.987 72.6158 438.175 76.9657C442.496 85.5546 449.074 91.8831 458.178 95.7295C462.679 97.6315 468.258 98.9657 474.539 98.6666C480.564 98.3799 485.785 97.0262 490.111 94.8526C498.589 90.5923 505.27 84.019 508.973 74.9492C510.846 70.3612 512.262 65.0611 511.956 58.6405C511.377 46.4778 506.426 38.2309 499.893 31.9419C496.661 28.8301 492.768 26.1831 488.182 24.2699C483.731 22.4137 477.937 21.0373 471.732 21.3326C468.682 21.4778 465.804 21.8574 463.178 22.5602Z" fill="#C6C6C6"/>
<path d="M469.1 48.645C470.489 49.5648 471.911 50.4531 473.223 51.4508C470.259 53.3108 467.353 55.2293 464.406 57.1061C464.854 57.4481 465.363 57.7286 465.81 58.0706C468.782 56.189 471.754 54.3085 474.715 52.4152C476.042 53.2365 477.349 54.0783 478.575 55.0019C475.608 56.8744 472.741 58.846 469.802 60.7448C470.237 61.0988 470.771 61.3542 471.249 61.6655C474.287 59.8068 477.25 57.8725 480.241 55.9665V49.741H486.821V62.1479C488.678 62.25 490.725 62.1625 492.655 62.1914V68.0224H480.241V62.1037C476.594 64.3183 472.856 66.8228 469.187 69.162C465.367 66.6825 461.684 64.0639 457.87 61.5778C456.765 65.0781 454.141 67.7112 449.799 68.0224C447.091 68.2159 444.014 67.8778 440.895 68.0224V49.741C444.794 49.9992 449.076 49.2199 452.168 50.1794C454.901 51.0279 456.839 53.2078 457.739 55.9224C461.555 53.5265 465.311 51.0697 469.1 48.645ZM447.167 55.6156V62.1916C448.734 62.1993 449.926 62.2903 450.852 61.578C452.228 60.5185 452.505 57.8919 451.29 56.4924C450.479 55.5586 449.11 55.3625 447.211 55.4841C447.16 55.4915 447.163 55.5535 447.167 55.6156ZM494.366 49.741H500.945V62.1916H506.736V68.0226H494.321V49.8726C494.318 49.8104 494.314 49.7484 494.366 49.741Z" fill="#C6C6C6"/>
<path d="M280.971 177.563L269.338 185.08L280.971 192.597L269.338 200.114L257.705 192.534L269.338 185.017L257.705 177.563L269.338 170.046L280.971 177.563ZM269.276 202.494L280.91 194.977L292.543 202.494L280.91 210.011L269.276 202.494ZM280.971 192.534L292.605 185.017L280.971 177.563L292.543 170.046L304.176 177.563L292.543 185.08L304.176 192.597L292.543 200.114L280.971 192.534Z" fill="#C6C6C6"/>
<path d="M214.975 221.731H223.479C228.906 221.731 233.381 224.864 233.381 232.025V233.535C233.381 240.752 229.185 243.997 223.647 243.997H214.975V221.731ZM219.73 225.759V239.913H223.367C226.444 239.913 228.514 237.899 228.514 233.423V232.248C228.514 227.773 226.332 225.759 223.199 225.759H219.73ZM235.899 225.983H239.703L240.319 230.178C241.046 227.325 242.892 225.815 246.249 225.815H247.424V230.626H245.466C241.605 230.626 240.654 231.969 240.654 235.773V244.053H235.955V225.983H235.899ZM248.375 235.381V234.878C248.375 228.836 252.235 225.535 257.494 225.535C262.865 225.535 266.613 228.836 266.613 234.878V235.381C266.613 241.312 262.977 244.501 257.494 244.501C251.675 244.445 248.375 241.312 248.375 235.381ZM261.802 235.326V234.878C261.802 231.521 260.123 229.507 257.438 229.507C254.808 229.507 253.074 231.353 253.074 234.878V235.326C253.074 238.57 254.753 240.417 257.438 240.417C260.123 240.361 261.802 238.57 261.802 235.326ZM269.075 225.983H272.991L273.438 229.395C274.389 227.101 276.404 225.535 279.369 225.535C283.956 225.535 286.977 228.836 286.977 234.934V235.437C286.977 241.368 283.621 244.501 279.369 244.501C276.515 244.501 274.557 243.214 273.606 241.144V250.263H269.019L269.075 225.983ZM282.222 235.326V234.934C282.222 231.353 280.376 229.563 277.914 229.563C275.285 229.563 273.55 231.577 273.55 234.934V235.27C273.55 238.458 275.229 240.473 277.858 240.473C280.543 240.417 282.222 238.682 282.222 235.326ZM293.915 240.696L293.523 243.997H289.495V219.94H294.082V229.171C295.089 226.822 297.103 225.535 299.957 225.535C304.264 225.591 307.453 228.556 307.453 234.542V235.102C307.453 241.088 304.432 244.501 299.845 244.501C296.824 244.445 294.866 243.046 293.915 240.696ZM302.642 235.102V234.654C302.642 231.353 300.852 229.507 298.334 229.507C295.761 229.507 293.97 231.577 293.97 234.71V235.102C293.97 238.458 295.705 240.417 298.278 240.417C301.02 240.417 302.642 238.682 302.642 235.102ZM309.467 235.381V234.878C309.467 228.836 313.328 225.535 318.587 225.535C323.957 225.535 327.706 228.836 327.706 234.878V235.381C327.706 241.312 324.013 244.501 318.587 244.501C312.768 244.445 309.467 241.312 309.467 235.381ZM322.95 235.326V234.878C322.95 231.521 321.272 229.507 318.587 229.507C315.957 229.507 314.223 231.353 314.223 234.878V235.326C314.223 238.57 315.901 240.417 318.587 240.417C321.272 240.361 322.95 238.57 322.95 235.326ZM333.86 234.654L327.538 225.983H332.965L336.601 231.409L340.294 225.983H345.664L339.231 234.598L346 243.997H340.685L336.545 238.011L332.517 243.997H326.978L333.86 234.654Z" fill="#C6C6C6"/>
<path d="M493.485 178.041C497.214 176.21 499.062 176.45 499.103 178.307C499.153 180.718 498.797 183.925 498.54 186.245C497.156 198.857 494.844 209.162 494.67 222.111C500.76 206.343 505.865 195.384 512.445 181.886C514.533 177.586 515.867 178.389 517.582 177.627C524.261 174.652 524.51 176.475 523.64 180.113C520.4 193.587 512.105 236.011 510.837 242.544C510.472 244.434 508.417 243.633 507.887 242.894C505.509 239.604 502.824 239.552 503.122 237.365C504.614 226.473 509.983 199.147 511.384 192.709C504.249 207.336 496.849 225.622 493.046 235.991C492.242 238.192 490.775 238.031 489.864 236.42C488.579 234.157 486.085 233.002 485.67 230.328C484.369 221.826 487.162 205.62 487.551 195.368C483.665 206.567 477.143 228.311 474.285 238.134C473.108 242.199 469.18 241.536 470.224 237.574C474.566 221.088 483.922 191.93 487.966 181.447C488.919 178.978 491.413 179.06 493.485 178.041Z" fill="#C6C6C6"/>
<path d="M469.802 176.02C468.542 175.713 464.888 177.685 462.642 178.075C461.929 178.199 461.25 178.953 461.01 179.492C457.413 187.753 454.19 195.629 451.397 202.804C447.825 203.413 443.649 204.216 438.975 205.266C442.323 196.679 445.704 188.209 449.002 180.063C450.626 176.053 446.351 175.671 444.693 179.732C442.539 185.011 438.503 194.901 434.036 206.428C430.755 207.233 427.275 208.153 423.637 209.203C420.993 209.967 420.886 210.671 422.029 212.256C422.659 213.139 423.96 213.05 424.556 213.679C426.098 215.309 427.034 217.259 429.793 217.554C427.332 224.137 424.871 230.927 422.642 237.464C421.242 241.568 425.228 242.407 426.761 238.065C429.23 231.065 431.832 223.981 434.509 216.917C436.738 216.399 442.132 215.237 447.113 214.157C443.16 224.991 440.558 233.219 439.572 237.224C439.39 237.994 439.696 238.422 439.862 238.736C441.196 240.677 442.464 240.757 444.179 243.158C444.643 243.812 446.201 244.165 446.731 242.553C450.394 231.49 454.165 221.109 457.678 211.803C459.136 211.484 461.763 210.85 463.371 208.451C466.23 204.194 467.05 205.057 467.738 203.763C468.6 202.138 468.028 200.612 464.979 200.989C464.979 200.989 463.827 201.071 461.697 201.314C465.078 192.609 468.036 185.225 470.166 179.599C470.896 177.693 470.987 176.301 469.802 176.02Z" fill="#C6C6C6"/>
<path d="M464.813 232.48C465.601 234.47 468.062 233.867 467.125 231.466C466.172 229.02 463.802 221.655 463.181 219.283C462.336 216.086 465.998 216.96 464.142 219.05C462.551 220.847 461.49 221.568 458.549 224.985C455.706 228.284 456.477 232.565 459.518 233.51C462.949 234.578 465.973 230.797 467.846 228.024C469.661 225.338 467.904 223.763 466.073 225.351C464.896 226.371 463.537 227.939 462.161 228.785C461.043 229.465 460.164 228.734 461.656 226.681C463.388 224.303 465.327 222.311 466.769 220.065C469.711 215.486 463.893 212.847 461.391 215.821C460.048 217.406 460.388 218.963 460.753 220.298C461.341 222.438 463.529 229.268 464.813 232.48Z" fill="#C6C6C6"/>
<path d="M152 233.507V230.319H148.04V225.362L147.907 225.403L144.188 226.541L144.115 226.563V230.319H138.245V228.227C138.245 227.252 138.463 226.507 138.892 226.01C139.319 225.518 139.929 225.269 140.706 225.269C141.265 225.269 141.844 225.4 142.427 225.66L142.573 225.725V222.367L142.504 222.342C141.961 222.147 141.221 222.048 140.305 222.048C139.15 222.048 138.101 222.3 137.186 222.798C136.27 223.296 135.55 224.008 135.045 224.914C134.542 225.818 134.287 226.863 134.287 228.018V230.319H131.53V233.507H134.287V246.94H138.245V233.507H144.115V242.043C144.115 245.559 145.773 247.341 149.043 247.341C149.581 247.341 150.146 247.277 150.724 247.154C151.312 247.028 151.712 246.901 151.948 246.766L152 246.735V243.517L151.839 243.624C151.624 243.767 151.357 243.884 151.043 243.971C150.728 244.059 150.465 244.104 150.261 244.104C149.495 244.104 148.928 243.897 148.577 243.49C148.221 243.079 148.04 242.36 148.04 241.354V233.507H152ZM122.691 244.104C121.255 244.104 120.122 243.628 119.324 242.69C118.521 241.746 118.114 240.402 118.114 238.694C118.114 236.931 118.521 235.552 119.324 234.592C120.123 233.639 121.245 233.155 122.659 233.155C124.032 233.155 125.124 233.617 125.906 234.529C126.693 235.446 127.092 236.814 127.092 238.597C127.092 240.402 126.717 241.789 125.977 242.716C125.242 243.637 124.137 244.104 122.691 244.104ZM122.868 229.918C120.127 229.918 117.95 230.721 116.398 232.305C114.847 233.889 114.06 236.082 114.06 238.821C114.06 241.424 114.828 243.517 116.342 245.042C117.857 246.567 119.917 247.34 122.467 247.34C125.124 247.34 127.257 246.526 128.809 244.92C130.36 243.316 131.146 241.145 131.146 238.469C131.146 235.826 130.408 233.717 128.953 232.202C127.497 230.686 125.449 229.918 122.868 229.918ZM107.679 229.918C105.815 229.918 104.273 230.395 103.094 231.335C101.909 232.281 101.308 233.522 101.308 235.023C101.308 235.803 101.438 236.496 101.693 237.084C101.95 237.674 102.348 238.193 102.876 238.629C103.4 239.061 104.209 239.514 105.282 239.975C106.183 240.346 106.855 240.66 107.283 240.907C107.7 241.149 107.996 241.393 108.164 241.63C108.326 241.862 108.409 242.18 108.409 242.572C108.409 243.689 107.573 244.232 105.852 244.232C105.214 244.232 104.486 244.099 103.688 243.836C102.89 243.574 102.144 243.196 101.472 242.713L101.308 242.595V246.405L101.368 246.433C101.929 246.692 102.634 246.91 103.467 247.081C104.297 247.253 105.052 247.341 105.708 247.341C107.731 247.341 109.36 246.861 110.548 245.916C111.745 244.963 112.351 243.693 112.351 242.14C112.351 241.02 112.025 240.059 111.381 239.284C110.742 238.516 109.634 237.81 108.087 237.187C106.854 236.692 106.065 236.281 105.739 235.966C105.425 235.662 105.266 235.231 105.266 234.686C105.266 234.203 105.463 233.815 105.867 233.502C106.274 233.186 106.84 233.026 107.551 233.026C108.211 233.026 108.885 233.13 109.556 233.334C110.227 233.539 110.816 233.812 111.307 234.146L111.469 234.257V230.642L111.407 230.616C110.953 230.421 110.355 230.255 109.629 230.12C108.905 229.986 108.249 229.918 107.679 229.918ZM90.9899 244.104C89.5537 244.104 88.4207 243.628 87.6227 242.69C86.8195 241.746 86.4132 240.402 86.4132 238.694C86.4132 236.931 86.8199 235.552 87.6236 234.592C88.4216 233.639 89.5432 233.155 90.9581 233.155C92.33 233.155 93.4224 233.617 94.2051 234.529C94.9917 235.446 95.3907 236.814 95.3907 238.597C95.3907 240.402 95.0151 241.789 94.275 242.716C93.5402 243.637 92.4355 244.104 90.9899 244.104ZM91.1666 229.918C88.4251 229.918 86.2482 230.721 84.6969 232.305C83.1458 233.889 82.3588 236.082 82.3588 238.821C82.3588 241.425 83.127 243.517 84.6412 245.042C86.1554 246.567 88.216 247.34 90.7656 247.34C93.4218 247.34 95.556 246.526 97.1075 244.92C98.6583 243.316 99.4447 241.145 99.4447 238.469C99.4447 235.826 98.707 233.717 97.2515 232.202C95.7952 230.686 93.7478 229.918 91.1666 229.918ZM76.3508 233.197V230.319H72.441V246.939H76.3508V238.437C76.3508 236.991 76.6785 235.804 77.3252 234.907C77.9638 234.02 78.8149 233.571 79.8538 233.571C80.2059 233.571 80.6012 233.629 81.0293 233.744C81.4531 233.858 81.76 233.982 81.9411 234.113L82.1053 234.232V230.29L82.0419 230.263C81.6778 230.108 81.1628 230.03 80.5111 230.03C79.5287 230.03 78.6494 230.346 77.8963 230.967C77.2353 231.514 76.7574 232.263 76.3922 233.197H76.3508ZM65.4396 229.918C63.6461 229.918 62.0462 230.303 60.6852 231.061C59.3216 231.821 58.2671 232.906 57.5496 234.285C56.8353 235.662 56.4727 237.269 56.4727 239.062C56.4727 240.632 56.8243 242.074 57.5193 243.344C58.2147 244.616 59.199 245.611 60.4449 246.301C61.689 246.991 63.127 247.341 64.719 247.341C66.577 247.341 68.1633 246.969 69.4353 246.237L69.4866 246.207V242.625L69.3224 242.745C68.7462 243.165 68.1024 243.5 67.4096 243.741C66.7186 243.982 66.0885 244.104 65.5363 244.104C64.0021 244.104 62.7707 243.624 61.8767 242.678C60.9807 241.73 60.5265 240.4 60.5265 238.725C60.5265 237.04 61.0002 235.675 61.9339 234.668C62.8645 233.664 64.0984 233.155 65.6007 233.155C66.8859 233.155 68.1381 233.59 69.3228 234.449L69.4866 234.569V230.794L69.4337 230.765C68.9878 230.515 68.3799 230.309 67.6249 230.153C66.8734 229.997 66.1383 229.918 65.4396 229.918ZM53.78 230.319H49.8703V246.939H53.78V230.319ZM51.865 223.238C51.2216 223.238 50.6604 223.457 50.1993 223.891C49.7363 224.327 49.5013 224.875 49.5013 225.522C49.5013 226.158 49.7335 226.696 50.1919 227.12C50.6474 227.542 51.2104 227.757 51.865 227.757C52.5194 227.757 53.0846 227.542 53.5456 227.121C54.0098 226.696 54.245 226.158 54.245 225.522C54.245 224.897 54.0161 224.355 53.5647 223.909C53.114 223.464 52.542 223.238 51.865 223.238ZM42.1102 229.093V246.939H46.1002V223.747H40.578L33.5588 240.973L26.7471 223.747H21V246.939H24.7495V229.091H24.8784L32.0713 246.939H34.9009L41.9815 229.093H42.1102Z" fill="#C6C6C6"/>
<path d="M82.9579 190.145H64.5659V171.753H82.9579V190.145Z" fill="#C6C6C6"/>
<path d="M103.265 190.145H84.873V171.753H103.265V190.145Z" fill="#C6C6C6"/>
<path d="M82.9575 210.459H64.5659V192.067H82.9575V210.459Z" fill="#C6C6C6"/>
<path d="M103.265 210.459H84.873V192.067H103.265V210.459Z" fill="#C6C6C6"/>
</svg>
