<svg width="100" height="100" viewBox="0 0 100 100" fill="none" xmlns="http://www.w3.org/2000/svg">
<g filter="url(#filter0_d_28_151)">
<circle cx="50" cy="46" r="30" fill="#473AD1" fill-opacity="0.1"/>
</g>
<path d="M62.4998 52.1501V55.9001C62.5012 56.2482 62.4299 56.5928 62.2904 56.9118C62.151 57.2308 61.9464 57.5171 61.6899 57.7525C61.4334 57.9878 61.1305 58.167 60.8007 58.2785C60.4709 58.39 60.1215 58.4315 59.7748 58.4001C55.9283 57.9822 52.2335 56.6678 48.9873 54.5626C45.9671 52.6435 43.4065 50.0828 41.4873 47.0626C39.3748 43.8016 38.0601 40.0889 37.6498 36.2251C37.6186 35.8795 37.6596 35.5311 37.7704 35.2022C37.8812 34.8732 38.0593 34.571 38.2933 34.3146C38.5272 34.0583 38.8121 33.8535 39.1295 33.7133C39.447 33.573 39.7902 33.5004 40.1373 33.5001H43.8873C44.4939 33.4942 45.082 33.709 45.542 34.1045C46.002 34.5001 46.3024 35.0494 46.3873 35.6501C46.5456 36.8502 46.8391 38.0285 47.2623 39.1626C47.4305 39.61 47.4669 40.0963 47.3672 40.5637C47.2675 41.0312 47.0359 41.4603 46.6998 41.8001L45.1123 43.3876C46.8917 46.5171 49.4829 49.1082 52.6123 50.8876L54.1998 49.3001C54.5397 48.964 54.9687 48.7324 55.4362 48.6327C55.9037 48.533 56.3899 48.5694 56.8373 48.7376C57.9714 49.1608 59.1497 49.4543 60.3498 49.6126C60.957 49.6983 61.5115 50.0041 61.908 50.472C62.3044 50.9399 62.515 51.5371 62.4998 52.1501Z" stroke="#6379F4" stroke-width="2" stroke-linecap="round" stroke-linejoin="round"/>
<defs>
<filter id="filter0_d_28_151" x="0" y="0" width="100" height="100" filterUnits="userSpaceOnUse" color-interpolation-filters="sRGB">
<feFlood flood-opacity="0" result="BackgroundImageFix"/>
<feColorMatrix in="SourceAlpha" type="matrix" values="0 0 0 0 0 0 0 0 0 0 0 0 0 0 0 0 0 0 127 0" result="hardAlpha"/>
<feOffset dy="4"/>
<feGaussianBlur stdDeviation="10"/>
<feColorMatrix type="matrix" values="0 0 0 0 0 0 0 0 0 0 0 0 0 0 0 0 0 0 0.05 0"/>
<feBlend mode="normal" in2="BackgroundImageFix" result="effect1_dropShadow_28_151"/>
<feBlend mode="normal" in="SourceGraphic" in2="effect1_dropShadow_28_151" result="shape"/>
</filter>
</defs>
</svg>
